<svg xmlns="http://www.w3.org/2000/svg" xmlns:xlink="http://www.w3.org/1999/xlink" width="83.4" height="59.8" viewBox="0 0 83.4 59.8">
  <path id="quotation-mark" data-name="quotation mark" class="cls-1" d="M44.4,33.8C44.4,12.8,55.6,0,76.2,0A35.8,35.8,0,0,1,83,.6v11a39.457,39.457,0,0,0-7.4-.6c-5.6,0-10,2-13,5.2a18.092,18.092,0,0,0-5,11.4c1.8-2.4,5.4-3.4,8.8-3.4,10,0,17,7.6,17,17.8S75.8,59.8,65.2,59.8C54.8,59.8,44.4,51.6,44.4,33.8ZM0,33.8C0,12.8,11.2,0,31.8,0a39.6,39.6,0,0,1,7,.6v11a42.594,42.594,0,0,0-7.4-.6c-5.8,0-10.2,2-13,5.2a18.31,18.31,0,0,0-5.2,11.4c2-2.4,5.4-3.4,8.8-3.4,10,0,17,7.6,17,17.8S31.6,59.8,20.8,59.8C10.4,59.8,0,51.6,0,33.8Z"/>
</svg>
