<svg id="Layer_1" data-name="Layer 1" xmlns="http://www.w3.org/2000/svg" viewBox="0 0 77.81 79.76"><defs><style>.cls-1{fill:#fff;}.cls-2{fill:#ed1a3b;}.cls-3{fill:#004fa3;}</style></defs><title>crest</title><rect class="cls-1" width="77.81" height="79.76"/><rect class="cls-2" x="38.87" y="5.43" width="33.49" height="69.31"/><polygon class="cls-3" points="42.28 74.85 5.61 74.73 5.61 5.43 39.05 5.43 39.05 70.45 42.28 74.85"/><path class="cls-1" d="M289,217.61v0.91c8,0.79,8.56,4.3,8.56,12v6.36c0,7.38,1.2,19.85-11.13,19.85-15.64,0-13.81-15.61-13.81-16.76V227.54c0-6.66.73-7.87,8.21-9v-0.91H260.52v0.91c6.85,1,6.91,2.78,7.08,9v13.56c0,4.84-1.83,18.4,15.87,18.4,12.67,0,15.81-7.92,16-15.73l0.34-13.26c0.23-8,.57-11.38,5.77-12v-0.91H289Z" transform="translate(-231.41 -182.21)"/><path class="cls-1" d="M265.7,234.64v-1.12c-10.67-1.64-9.55-4.09-3.51-19.34l8.29-21.05,11.24,28.71c1.83,4.68,5.05,10.63-4.85,11.68v1.12h22.26v-1.12c-6.25-.74-7.86-5.51-10-10.93l-15.87-40.24h-1l-13.41,33.92c-4.35,10.79-6.39,16.66-13,17.25v1.12h19.8Z" transform="translate(-231.41 -182.21)"/></svg>